<svg width="341" height="99" viewBox="0 0 341 99" fill="none" xmlns="http://www.w3.org/2000/svg">
<g filter="url(#filter0_d_1_10)">
<rect x="4" width="333" height="91" rx="6" fill="white"/>
</g>
<path d="M37.0795 35.8182H44.3409L39.7727 63.2955C39.4318 65.3068 38.7557 66.9375 37.7443 68.1875C36.733 69.4489 35.4318 70.3693 33.8409 70.9489C32.2614 71.5284 30.4432 71.8182 28.3864 71.8182C28.1591 71.8182 27.9318 71.8125 27.7045 71.8011C27.4773 71.8011 27.233 71.7955 26.9716 71.7841L27.9091 66.108C28.0795 66.1193 28.2443 66.125 28.4034 66.125C28.5625 66.1364 28.7159 66.142 28.8636 66.142C30.0341 66.142 30.8977 65.892 31.4545 65.392C32.0114 64.892 32.375 64.1534 32.5455 63.1761L37.0795 35.8182ZM41.392 32.4432C40.3125 32.4432 39.4261 32.0852 38.733 31.3693C38.0398 30.642 37.7557 29.7727 37.8807 28.7614C38.0057 27.75 38.4943 26.8864 39.3466 26.1705C40.1989 25.4545 41.1591 25.0966 42.2273 25.0966C43.3182 25.0966 44.2045 25.4545 44.8864 26.1705C45.5682 26.8864 45.8523 27.75 45.7386 28.7614C45.625 29.7727 45.142 30.642 44.2898 31.3693C43.4489 32.0852 42.483 32.4432 41.392 32.4432ZM45.9304 62L51.7259 27.0909H65.4986C68.1349 27.0909 70.3054 27.5568 72.0099 28.4886C73.7259 29.4205 74.9304 30.7443 75.6236 32.4602C76.3281 34.1648 76.4929 36.1761 76.1179 38.4943C75.7315 40.8125 74.8963 42.8011 73.6122 44.4602C72.3395 46.1193 70.6804 47.3977 68.6349 48.2955C66.6009 49.1818 64.2429 49.625 61.5611 49.625H52.3395L53.3622 43.6932H61.3736C62.7827 43.6932 63.9872 43.5 64.9872 43.1136C65.9872 42.7273 66.777 42.1477 67.3565 41.375C67.9474 40.6023 68.3338 39.642 68.5156 38.4943C68.7088 37.3239 68.6406 36.3466 68.3111 35.5625C67.9815 34.767 67.3849 34.1648 66.5213 33.7557C65.6577 33.3352 64.5213 33.125 63.1122 33.125H58.1349L53.3111 62H45.9304ZM67.4077 46.1136L73.4588 62H65.3111L59.4474 46.1136H67.4077ZM89.017 62.5114C86.3352 62.5114 84.1136 61.9659 82.3523 60.875C80.5909 59.7727 79.3523 58.2159 78.6364 56.2045C77.9318 54.1818 77.8125 51.7898 78.2784 49.0284C78.733 46.3352 79.6477 43.9716 81.0227 41.9375C82.4091 39.9034 84.1477 38.3182 86.2386 37.1818C88.3295 36.0455 90.6591 35.4773 93.2273 35.4773C94.9545 35.4773 96.517 35.7557 97.9148 36.3125C99.3239 36.858 100.494 37.6875 101.426 38.8011C102.358 39.9034 102.994 41.2841 103.335 42.9432C103.688 44.6023 103.682 46.5455 103.318 48.7727L102.994 50.767H80.9034L81.6023 46.267H96.875C97.0455 45.2216 96.9773 44.2955 96.6705 43.4886C96.3636 42.6818 95.8523 42.0511 95.1364 41.5966C94.4205 41.1307 93.5398 40.8977 92.4943 40.8977C91.4261 40.8977 90.4261 41.1591 89.4943 41.6818C88.5625 42.2045 87.7784 42.892 87.142 43.7443C86.517 44.5852 86.1136 45.5 85.9318 46.4886L85.1307 50.9545C84.9034 52.3295 84.9489 53.4716 85.267 54.3807C85.5966 55.2898 86.1648 55.9716 86.9716 56.4261C87.7784 56.8693 88.8011 57.0909 90.0398 57.0909C90.8466 57.0909 91.6023 56.9773 92.3068 56.75C93.0227 56.5227 93.6591 56.1875 94.2159 55.7443C94.7727 55.2898 95.2273 54.7273 95.5795 54.0568L102.21 54.5C101.597 56.1136 100.665 57.5227 99.4148 58.7273C98.1648 59.9205 96.6591 60.8523 94.8977 61.5227C93.1477 62.1818 91.1875 62.5114 89.017 62.5114ZM113.286 62.4943C111.626 62.4943 110.189 62.2045 108.973 61.625C107.768 61.0341 106.882 60.1591 106.314 59C105.746 57.8409 105.604 56.4034 105.888 54.6875C106.138 53.233 106.609 52.017 107.303 51.0398C108.007 50.0511 108.865 49.2557 109.876 48.6534C110.888 48.0511 112.007 47.5909 113.234 47.2727C114.473 46.9545 115.751 46.7386 117.07 46.625C118.592 46.4659 119.831 46.3125 120.786 46.1648C121.751 46.017 122.473 45.8068 122.95 45.5341C123.428 45.25 123.717 44.8295 123.82 44.2727V44.1705C123.99 43.1023 123.791 42.2727 123.223 41.6818C122.666 41.0795 121.774 40.7784 120.547 40.7784C119.251 40.7784 118.149 41.0625 117.24 41.6307C116.342 42.1989 115.7 42.9205 115.314 43.7955L108.7 43.25C109.291 41.6591 110.183 40.2841 111.376 39.125C112.581 37.9545 114.03 37.0568 115.723 36.4318C117.416 35.7955 119.314 35.4773 121.416 35.4773C122.871 35.4773 124.229 35.6477 125.49 35.9886C126.763 36.3295 127.859 36.858 128.78 37.5739C129.712 38.2898 130.382 39.2102 130.791 40.3352C131.212 41.4489 131.297 42.7841 131.047 44.3409L128.098 62H121.212L121.825 58.3693H121.621C121.064 59.1875 120.382 59.9091 119.575 60.5341C118.768 61.1477 117.842 61.6307 116.797 61.983C115.751 62.3239 114.581 62.4943 113.286 62.4943ZM116.2 57.483C117.257 57.483 118.229 57.2727 119.115 56.8523C120.013 56.4205 120.751 55.8409 121.331 55.1136C121.922 54.3864 122.297 53.5625 122.456 52.642L122.899 49.8636C122.672 50.0114 122.342 50.142 121.911 50.2557C121.49 50.3693 121.03 50.4773 120.53 50.5795C120.041 50.6705 119.547 50.7557 119.047 50.8352C118.547 50.9034 118.098 50.9716 117.7 51.0398C116.825 51.1648 116.041 51.3636 115.348 51.6364C114.655 51.9091 114.092 52.2784 113.661 52.7443C113.229 53.1989 112.962 53.767 112.859 54.4489C112.7 55.4375 112.933 56.1932 113.558 56.7159C114.195 57.2273 115.075 57.483 116.2 57.483ZM143.345 62.4261C141.345 62.4261 139.624 61.9148 138.18 60.892C136.749 59.858 135.726 58.3409 135.112 56.3409C134.51 54.3295 134.453 51.8636 134.942 48.9432C135.442 45.9432 136.339 43.4489 137.635 41.4602C138.93 39.4602 140.464 37.9659 142.237 36.9773C144.01 35.9773 145.857 35.4773 147.777 35.4773C149.232 35.4773 150.408 35.7273 151.305 36.2273C152.214 36.7159 152.913 37.3295 153.402 38.0682C153.891 38.7955 154.232 39.5114 154.425 40.2159H154.646L156.845 27.0909H164.089L158.294 62H151.135L151.834 57.8068H151.527C151.072 58.5341 150.47 59.2557 149.72 59.9716C148.982 60.6761 148.084 61.2614 147.027 61.7273C145.982 62.1932 144.754 62.4261 143.345 62.4261ZM146.55 56.6477C147.709 56.6477 148.754 56.3295 149.686 55.6932C150.618 55.0455 151.402 54.142 152.038 52.983C152.675 51.8239 153.118 50.4659 153.368 48.9091C153.629 47.3523 153.635 46 153.385 44.8523C153.135 43.7045 152.646 42.8182 151.919 42.1932C151.203 41.5682 150.254 41.2557 149.072 41.2557C147.879 41.2557 146.822 41.5795 145.902 42.2273C144.993 42.875 144.237 43.7727 143.635 44.9205C143.044 46.0682 142.624 47.3977 142.374 48.9091C142.124 50.4318 142.107 51.7784 142.322 52.9489C142.538 54.108 142.999 55.017 143.703 55.6761C144.408 56.3239 145.357 56.6477 146.55 56.6477ZM171.645 62.4943C169.986 62.4943 168.548 62.2045 167.332 61.625C166.128 61.0341 165.241 60.1591 164.673 59C164.105 57.8409 163.963 56.4034 164.247 54.6875C164.497 53.233 164.969 52.017 165.662 51.0398C166.366 50.0511 167.224 49.2557 168.236 48.6534C169.247 48.0511 170.366 47.5909 171.594 47.2727C172.832 46.9545 174.111 46.7386 175.429 46.625C176.952 46.4659 178.19 46.3125 179.145 46.1648C180.111 46.017 180.832 45.8068 181.31 45.5341C181.787 45.25 182.077 44.8295 182.179 44.2727V44.1705C182.349 43.1023 182.151 42.2727 181.582 41.6818C181.026 41.0795 180.134 40.7784 178.906 40.7784C177.611 40.7784 176.509 41.0625 175.599 41.6307C174.702 42.1989 174.06 42.9205 173.673 43.7955L167.06 43.25C167.651 41.6591 168.543 40.2841 169.736 39.125C170.94 37.9545 172.389 37.0568 174.082 36.4318C175.776 35.7955 177.673 35.4773 179.776 35.4773C181.23 35.4773 182.588 35.6477 183.849 35.9886C185.122 36.3295 186.219 36.858 187.139 37.5739C188.071 38.2898 188.741 39.2102 189.151 40.3352C189.571 41.4489 189.656 42.7841 189.406 44.3409L186.457 62H179.571L180.185 58.3693H179.98C179.423 59.1875 178.741 59.9091 177.935 60.5341C177.128 61.1477 176.202 61.6307 175.156 61.983C174.111 62.3239 172.94 62.4943 171.645 62.4943ZM174.56 57.483C175.616 57.483 176.588 57.2727 177.474 56.8523C178.372 56.4205 179.111 55.8409 179.69 55.1136C180.281 54.3864 180.656 53.5625 180.815 52.642L181.259 49.8636C181.031 50.0114 180.702 50.142 180.27 50.2557C179.849 50.3693 179.389 50.4773 178.889 50.5795C178.401 50.6705 177.906 50.7557 177.406 50.8352C176.906 50.9034 176.457 50.9716 176.06 51.0398C175.185 51.1648 174.401 51.3636 173.707 51.6364C173.014 51.9091 172.452 52.2784 172.02 52.7443C171.588 53.1989 171.321 53.767 171.219 54.4489C171.06 55.4375 171.293 56.1932 171.918 56.7159C172.554 57.2273 173.435 57.483 174.56 57.483ZM192.227 62L198.023 27.0909H205.284L203.136 40.2159H203.341C203.773 39.5114 204.352 38.7955 205.08 38.0682C205.818 37.3295 206.722 36.7159 207.79 36.2273C208.858 35.7273 210.125 35.4773 211.591 35.4773C213.5 35.4773 215.176 35.9773 216.619 36.9773C218.063 37.9659 219.102 39.4602 219.739 41.4602C220.375 43.4489 220.443 45.9432 219.943 48.9432C219.466 51.8636 218.585 54.3295 217.301 56.3409C216.028 58.3409 214.5 59.858 212.716 60.892C210.943 61.9148 209.063 62.4261 207.074 62.4261C205.665 62.4261 204.506 62.1932 203.597 61.7273C202.699 61.2614 202 60.6761 201.5 59.9716C201 59.2557 200.642 58.5341 200.426 57.8068H200.068L199.386 62H192.227ZM201.517 48.9091C201.267 50.4659 201.261 51.8239 201.5 52.983C201.75 54.142 202.227 55.0455 202.932 55.6932C203.648 56.3295 204.585 56.6477 205.744 56.6477C206.938 56.6477 207.994 56.3239 208.915 55.6761C209.847 55.017 210.619 54.108 211.233 52.9489C211.847 51.7784 212.278 50.4318 212.528 48.9091C212.767 47.3977 212.773 46.0682 212.545 44.9205C212.318 43.7727 211.852 42.875 211.148 42.2273C210.443 41.5795 209.489 41.2557 208.284 41.2557C207.114 41.2557 206.063 41.5682 205.131 42.1932C204.21 42.8182 203.438 43.7045 202.812 44.8523C202.199 46 201.767 47.3523 201.517 48.9091ZM222.607 62L226.97 35.8182H234.232L229.868 62H222.607ZM231.351 32.4091C230.271 32.4091 229.379 32.0511 228.675 31.3352C227.982 30.608 227.697 29.7443 227.822 28.7443C227.947 27.7216 228.436 26.858 229.288 26.1534C230.141 25.4375 231.107 25.0795 232.186 25.0795C233.266 25.0795 234.146 25.4375 234.828 26.1534C235.51 26.858 235.794 27.7216 235.68 28.7443C235.567 29.7443 235.084 30.608 234.232 31.3352C233.391 32.0511 232.43 32.4091 231.351 32.4091ZM248.741 27.0909L242.946 62H235.685L241.48 27.0909H248.741ZM248.763 62L253.126 35.8182H260.388L256.024 62H248.763ZM257.507 32.4091C256.428 32.4091 255.536 32.0511 254.831 31.3352C254.138 30.608 253.854 29.7443 253.979 28.7443C254.104 27.7216 254.592 26.858 255.445 26.1534C256.297 25.4375 257.263 25.0795 258.342 25.0795C259.422 25.0795 260.303 25.4375 260.984 26.1534C261.666 26.858 261.95 27.7216 261.837 28.7443C261.723 29.7443 261.24 30.608 260.388 31.3352C259.547 32.0511 258.587 32.4091 257.507 32.4091ZM280.131 35.8182L279.227 41.2727H263.443L264.364 35.8182H280.131ZM268.966 29.5455H276.227L272.17 53.9545C272.057 54.625 272.074 55.1477 272.222 55.5227C272.369 55.8864 272.614 56.142 272.955 56.2898C273.307 56.4375 273.727 56.5114 274.216 56.5114C274.557 56.5114 274.903 56.483 275.256 56.4261C275.608 56.358 275.875 56.3068 276.057 56.2727L276.33 61.6761C275.92 61.8011 275.369 61.9375 274.676 62.0852C273.994 62.233 273.188 62.3239 272.256 62.358C270.483 62.4261 268.983 62.1932 267.756 61.6591C266.528 61.1136 265.648 60.2784 265.114 59.1534C264.58 58.0284 264.466 56.6136 264.773 54.9091L268.966 29.5455ZM283.378 71.8182C282.446 71.8182 281.594 71.7443 280.821 71.5966C280.048 71.4602 279.412 71.2841 278.912 71.0682L281.469 65.6477C282.276 65.9091 283.009 66.0455 283.668 66.0568C284.338 66.0682 284.952 65.8977 285.509 65.5455C286.065 65.1932 286.577 64.6136 287.043 63.8068L287.69 62.6989L282.781 35.8182H290.145L292.361 55.0795H292.634L301.31 35.8182H309.27L294.287 64.8295C293.548 66.25 292.673 67.483 291.662 68.5284C290.662 69.5739 289.474 70.3807 288.099 70.9489C286.736 71.5284 285.162 71.8182 283.378 71.8182Z" fill="#3F89C9"/>
<defs>
<filter id="filter0_d_1_10" x="0" y="0" width="341" height="99" filterUnits="userSpaceOnUse" color-interpolation-filters="sRGB">
<feFlood flood-opacity="0" result="BackgroundImageFix"/>
<feColorMatrix in="SourceAlpha" type="matrix" values="0 0 0 0 0 0 0 0 0 0 0 0 0 0 0 0 0 0 127 0" result="hardAlpha"/>
<feOffset dy="4"/>
<feGaussianBlur stdDeviation="2"/>
<feComposite in2="hardAlpha" operator="out"/>
<feColorMatrix type="matrix" values="0 0 0 0 0 0 0 0 0 0 0 0 0 0 0 0 0 0 0.25 0"/>
<feBlend mode="normal" in2="BackgroundImageFix" result="effect1_dropShadow_1_10"/>
<feBlend mode="normal" in="SourceGraphic" in2="effect1_dropShadow_1_10" result="shape"/>
</filter>
</defs>
</svg>
